<?xml version="1.0" standalone="no"?>
<!DOCTYPE svg PUBLIC "-//W3C//DTD SVG 20010904//EN"
 "http://www.w3.org/TR/2001/REC-SVG-20010904/DTD/svg10.dtd">
<svg version="1.0" xmlns="http://www.w3.org/2000/svg"
 width="500.000000pt" height="500.000000pt" viewBox="0 0 500.000000 500.000000"
 preserveAspectRatio="xMidYMid meet">

<g transform="translate(0.000000,500.000000) scale(0.100000,-0.100000)"
fill="#000000" stroke="none">
<path d="M2373 3953 c-41 -8 -24 -18 21 -15 40 4 45 1 48 -19 2 -19 13 -24 64
-35 111 -22 185 -72 220 -148 22 -49 44 -151 44 -209 0 -24 -3 -27 -25 -21
-22 6 -25 3 -25 -23 0 -28 15 -63 54 -128 17 -29 17 -29 -1 -5 -71 95 -131
128 -238 131 -39 1 -81 -3 -93 -10 l-22 -12 2 93 c1 67 3 77 5 36 l4 -58 51
26 c52 26 77 28 161 8 28 -7 28 -6 21 32 -16 94 -83 157 -177 170 l-47 7 -2
-64 -2 -64 -3 58 -4 58 -32 -3 -32 -3 -6 -100 c-4 -55 -7 -121 -8 -147 0 -27
-6 -48 -12 -48 -7 0 -9 50 -7 155 l3 156 -25 -6 c-42 -10 -107 -53 -130 -85
-12 -16 -24 -46 -27 -65 l-6 -35 55 0 c42 0 59 -5 73 -20 10 -11 13 -20 7 -20
-6 0 -18 -13 -27 -30 -9 -16 -21 -30 -28 -30 -44 0 -124 -36 -164 -73 l-46
-42 22 35 c11 19 21 47 21 61 0 15 7 32 15 39 23 19 18 32 -7 19 -21 -11 -21
-11 -15 62 3 41 11 90 17 110 26 90 102 158 210 185 38 10 70 24 70 30 0 8
-19 6 -62 -6 -126 -35 -179 -69 -223 -144 -38 -66 -53 -119 -71 -249 -16 -123
-47 -215 -168 -515 -30 -72 -32 -84 -20 -97 22 -21 88 -37 181 -44 78 -6 111
-16 82 -25 -259 -79 -289 -108 -369 -358 -78 -239 -92 -278 -101 -278 -7 0
-30 91 -28 108 4 24 -3 42 -16 42 -8 0 -15 2 -15 4 0 13 -240 771 -297 936
-49 144 -90 184 -129 125 -20 -31 -19 -41 55 -285 117 -386 199 -656 223 -731
22 -67 23 -77 10 -86 -11 -6 -13 -14 -7 -24 5 -8 8 -24 7 -36 -2 -14 4 -26 17
-33 12 -6 21 -17 21 -25 0 -8 5 -15 10 -15 7 0 8 -13 4 -35 -6 -32 -4 -35 17
-36 16 -1 13 -4 -11 -8 -19 -3 -37 -3 -38 2 -6 12 -32 -13 -32 -30 0 -8 13
-19 29 -24 27 -9 29 -14 24 -45 -4 -23 2 -50 17 -86 26 -61 33 -68 78 -68 30
0 32 -2 32 -35 l0 -35 40 20 c23 11 45 18 50 15 5 -3 30 -69 55 -147 35 -110
43 -143 33 -150 -10 -6 -8 -8 5 -8 9 0 17 -7 17 -15 0 -9 9 -35 20 -57 16 -32
17 -44 8 -50 -14 -9 -77 -28 -93 -28 -10 0 -42 94 -107 315 l-23 80 -6 -70
c-4 -38 -7 -134 -8 -212 -2 -233 -29 -371 -93 -468 -31 -47 -39 -52 -120 -80
-96 -33 -119 -48 -101 -66 27 -27 99 -24 452 16 140 16 161 13 161 -25 0 -10
9 -28 19 -41 18 -23 26 -24 128 -24 115 0 235 28 278 64 16 14 41 16 140 16
119 -1 120 -1 132 -27 24 -48 39 -53 152 -52 133 1 174 14 206 64 l24 39 183
2 c101 1 197 2 213 2 17 1 55 -11 85 -26 89 -43 230 -67 394 -67 77 1 161 5
186 11 25 6 97 15 160 20 167 15 221 23 223 34 3 16 -155 89 -291 135 -117 40
-127 42 -223 38 l-100 -3 -25 32 c-14 18 -53 54 -87 79 -138 105 -174 154
-238 327 -61 164 -81 256 -129 595 -68 473 -92 563 -167 638 -49 49 -132 94
-174 94 -62 0 -143 20 -162 39 -18 18 -16 18 69 25 48 4 103 14 122 22 46 19
45 22 -68 279 l-92 210 -9 125 c-5 74 -17 153 -29 191 -35 114 -120 187 -256
219 -27 7 -56 20 -64 29 -18 20 -54 30 -87 24z m-138 -603 c0 -65 -2 -70 -20
-68 -10 2 -26 15 -34 29 -12 22 -12 32 -2 56 7 17 22 35 34 41 12 6 22 11 22
11 0 1 0 -31 0 -69z m145 -1 c0 -25 -3 -49 -7 -53 -4 -3 -8 -12 -9 -19 -3 -18
-34 -74 -34 -61 0 6 7 30 15 53 8 23 14 43 15 46 0 3 0 29 0 58 0 37 3 48 10
37 5 -8 10 -36 10 -61z m199 29 c21 -36 5 -82 -29 -86 -20 -3 -23 -1 -12 9 6
7 12 29 12 49 0 20 -6 42 -12 49 -11 10 -9 12 7 9 10 -2 26 -15 34 -30z
m-1324 -245 c48 -148 125 -385 171 -527 86 -262 88 -275 47 -276 -19 0 -24 15
-112 300 -46 146 -116 371 -157 501 -41 130 -74 243 -74 252 0 10 8 17 19 17
17 0 33 -40 106 -267z m1295 122 c18 -22 5 -30 -19 -13 -12 8 -18 18 -14 21
10 11 19 8 33 -8z m-322 -7 c-16 -5 -28 -14 -28 -19 0 -6 6 -7 13 -4 6 4 3 -1
-7 -9 -25 -20 -30 -15 -15 18 9 19 19 26 38 25 l26 -1 -27 -10z m210 -29 c-3
-8 -7 -3 -11 10 -4 17 -3 21 5 13 5 -5 8 -16 6 -23z m-23 1 c8 -25 -10 -50
-36 -50 -24 0 -32 16 -25 46 8 31 52 34 61 4z m-125 -23 c-32 -11 -36 -17 -45
-65 l-10 -53 -23 47 c-13 26 -20 50 -15 55 11 10 73 27 103 28 21 0 19 -2 -10
-12z m283 -63 c-16 -47 -27 -60 -17 -19 5 20 0 31 -24 53 l-31 29 43 -10 44
-10 -15 -43z m-178 -53 c3 -5 1 -12 -5 -16 -5 -3 -10 1 -10 9 0 18 6 21 15 7z
m-163 -36 c19 8 42 -20 34 -41 -9 -24 -37 -12 -59 25 -12 24 -14 31 -4 23 8
-7 21 -10 29 -7z m336 3 c15 -19 -4 -60 -25 -56 -22 4 -29 34 -13 53 15 18 25
19 38 3z m80 -258 c12 -12 22 -23 22 -25 0 -3 -18 -14 -40 -25 -29 -15 -38
-16 -34 -6 3 8 -4 24 -15 35 l-20 20 27 10 c37 13 36 13 60 -9z m-360 -24 c13
-13 12 -18 -9 -45 -29 -36 -32 -36 -86 -11 l-42 19 30 34 c28 32 34 34 62 26
17 -5 38 -15 45 -23z m-145 -133 c-19 -99 -54 -189 -73 -186 -24 3 -145 26
-148 29 -2 1 4 29 12 62 24 90 18 98 -8 12 -22 -72 -24 -75 -55 -78 -30 -3
-32 -1 -26 20 15 52 69 158 89 178 l23 20 -4 -32 -3 -33 12 35 13 35 83 -3
c53 -2 82 1 82 7 0 6 4 11 9 11 5 0 2 -35 -6 -77z m90 36 l38 -13 -6 -51 c-9
-65 -33 -187 -39 -193 -4 -3 -98 25 -114 34 -2 1 4 17 14 36 23 45 44 125 44
172 0 26 4 37 13 33 6 -2 29 -10 50 -18z m67 -31 c-2 -39 -39 -290 -44 -295
-3 -4 -9 -3 -13 1 -9 8 39 306 50 306 4 0 7 -6 7 -12z m292 -75 c-8 -43 -17
-89 -20 -103 -6 -23 -6 -22 -10 9 -3 34 8 93 28 145 16 44 17 29 2 -51z m-195
10 l-6 -48 14 45 c17 58 18 29 1 -93 -9 -75 -17 -101 -32 -111 -17 -13 -19
-13 -22 0 -6 25 35 254 45 254 3 0 3 -21 0 -47z m352 -71 c0 -15 -4 -36 -9
-47 -6 -15 -9 -6 -9 33 -1 33 3 51 9 47 6 -3 10 -18 9 -33z m-904 -151 c-14
-27 -27 -37 -38 -28 -2 1 -11 -4 -20 -12 -10 -7 -17 -10 -17 -7 0 12 40 85 50
91 14 9 12 -5 -5 -35 -8 -14 -14 -29 -14 -35 0 -5 12 13 26 40 18 33 28 44 31
33 2 -9 -4 -30 -13 -47z m276 -99 c-4 -67 -11 -66 -11 3 0 32 3 55 7 51 4 -4
6 -28 4 -54z m352 -150 c-3 -111 -9 -202 -12 -202 -7 0 -3 379 4 399 12 33 14
-7 8 -197z m-1016 192 c-3 -3 -12 -4 -19 -1 -8 3 -5 6 6 6 11 1 17 -2 13 -5z
m630 -31 c-3 -10 -5 -4 -5 12 0 17 2 24 5 18 2 -7 2 -21 0 -30z m186 20 c-7
-2 -21 -2 -30 0 -10 3 -4 5 12 5 17 0 24 -2 18 -5z m47 -23 c0 -5 -20 -10 -45
-10 -25 0 -45 5 -45 10 0 6 20 10 45 10 25 0 45 -4 45 -10z m80 -5 c0 -8 -6
-15 -14 -15 -17 0 -28 14 -19 24 12 12 33 6 33 -9z m-632 -14 c10 -6 1 -19
-34 -49 -42 -35 -74 -45 -74 -22 0 10 77 80 88 80 4 0 13 -4 20 -9z m552 -31
c0 -5 -22 -10 -50 -10 -27 0 -50 5 -50 10 0 6 23 10 50 10 28 0 50 -4 50 -10z
m80 -15 c16 -19 4 -35 -26 -35 -26 0 -32 18 -12 38 16 16 23 15 38 -3z m-93
-36 c-10 -6 -28 -9 -40 -7 -12 1 -28 -1 -34 -5 -8 -5 -13 -3 -13 7 0 13 11 16
53 16 41 -1 48 -3 34 -11z m657 -188 c4 -64 9 -131 12 -148 3 -18 1 -33 -4
-33 -5 0 -12 42 -16 93 -4 50 -9 124 -12 162 -4 48 -2 66 4 56 6 -8 13 -66 16
-130z m73 92 c-3 -10 -5 -4 -5 12 0 17 2 24 5 18 2 -7 2 -21 0 -30z m-667 23
c0 -2 -7 -6 -15 -10 -8 -3 -15 -1 -15 4 0 6 7 10 15 10 8 0 15 -2 15 -4z m619
-115 c2 -67 -6 -45 -12 34 -4 44 -3 59 2 40 5 -16 9 -50 10 -74z m80 -161 c0
-9 -3 -7 -8 5 -5 11 -11 63 -14 115 l-6 95 14 -100 c8 -55 14 -107 14 -115z
m-649 171 c0 -11 -4 -23 -10 -26 -6 -4 -10 5 -10 19 0 14 5 26 10 26 6 0 10
-9 10 -19z m583 -129 c2 -32 1 -48 -4 -40 -5 7 -8 36 -8 63 1 60 6 50 12 -23z
m-846 52 c-3 -3 -12 -4 -19 -1 -8 3 -5 6 6 6 11 1 17 -2 13 -5z m182 -51 c39
-4 55 -11 58 -24 3 -9 16 -20 30 -23 20 -6 24 -12 21 -39 -5 -50 -51 -69 -160
-65 -50 3 -93 9 -101 17 -26 21 -31 69 -11 107 17 31 23 34 64 34 25 0 69 -3
99 -7z m641 -108 c0 -8 -4 -15 -10 -15 -5 0 -10 7 -10 15 0 8 5 15 10 15 6 0
10 -7 10 -15z m30 5 c0 -5 -5 -10 -11 -10 -5 0 -7 5 -4 10 3 6 8 10 11 10 2 0
4 -4 4 -10z m78 -47 c2 -24 -1 -50 -6 -60 -7 -12 -11 -4 -17 36 -5 40 -12 55
-29 62 -17 7 -15 8 14 6 34 -2 35 -4 38 -44z m-135 -25 c-17 -18 -40 -49 -52
-68 -25 -41 -28 -33 -5 13 19 37 63 87 78 87 5 0 -4 -15 -21 -32z m-354 -251
c-2 -1 -13 -9 -24 -17 -19 -14 -19 -14 -6 3 7 9 18 17 24 17 6 0 8 -1 6 -3z
m129 -344 c-10 -2 -28 -2 -40 0 -13 2 -5 4 17 4 22 1 32 -1 23 -4z m-641 -49
c6 -17 -23 -88 -43 -105 -18 -15 -54 -2 -54 19 0 9 9 36 20 60 15 34 24 42 45
42 14 0 28 -7 32 -16z m617 -10 c9 -8 16 -21 16 -28 0 -8 3 -28 6 -45 6 -30 5
-31 -29 -31 -38 0 -47 12 -47 64 0 30 15 56 31 56 4 0 15 -7 23 -16z m-654
-166 c12 -8 11 -8 -3 -4 -10 3 -44 6 -75 6 -42 0 -53 3 -42 10 17 12 97 4 120
-12z m635 2 c-3 -5 -18 -10 -33 -9 l-27 1 25 8 c35 11 42 11 35 0z"/>
<path d="M2381 2484 c0 -11 3 -14 6 -6 3 7 2 16 -1 19 -3 4 -6 -2 -5 -13z"/>
</g>
</svg>
