<?xml version="1.0" standalone="no"?>
<!DOCTYPE svg PUBLIC "-//W3C//DTD SVG 20010904//EN"
 "http://www.w3.org/TR/2001/REC-SVG-20010904/DTD/svg10.dtd">
<svg version="1.0" xmlns="http://www.w3.org/2000/svg"
 width="204.000000pt" height="247.000000pt" viewBox="0 0 204.000000 247.000000"
 preserveAspectRatio="xMidYMid meet">

<g transform="translate(0.000000,247.000000) scale(0.100000,-0.100000)"
fill="#000000" stroke="none">
<path d="M160 2151 c-77 -24 -131 -75 -147 -141 -4 -19 -6 -375 -3 -791 l5
-755 24 -36 c13 -19 40 -46 59 -59 34 -23 42 -24 245 -27 165 -2 212 0 219 10
18 26 -5 -38 -48 -133 -24 -53 -44 -106 -44 -118 0 -85 111 -131 167 -69 10
11 47 83 84 161 l65 142 231 3 230 2 69 -146 c38 -81 80 -155 93 -165 34 -27
83 -24 119 6 49 41 49 64 -3 178 -26 56 -49 108 -52 114 -4 10 28 13 141 13
l146 0 0 -165 0 -165 70 0 c88 0 139 24 177 82 l28 42 0 710 c0 391 -4 728 -8
748 -10 47 -48 93 -101 121 l-41 22 -752 3 c-720 2 -753 3 -753 21 0 36 39
170 64 219 14 27 48 80 76 116 l51 66 -193 -1 c-106 0 -204 -4 -218 -8z m-94
-353 l29 -33 -32 29 c-31 28 -38 36 -30 36 2 0 16 -15 33 -32z m911 -375 c-2
-21 -4 -6 -4 32 0 39 2 55 4 38 2 -18 2 -50 0 -70z m1050 65 c-3 -8 -6 -5 -6
6 -1 11 2 17 5 13 3 -3 4 -12 1 -19z m-67 -93 c-7 -8 -17 -15 -23 -15 -6 0 -2
7 9 15 25 19 30 19 14 0z m-103 -32 c-20 -2 -52 -2 -70 0 -17 2 0 4 38 4 39 0
53 -2 32 -4z m-1009 -68 c-6 -14 -13 -23 -15 -21 -5 5 15 46 22 46 3 0 -1 -11
-7 -25z m-21 -147 c-3 -8 -6 -5 -6 6 -1 11 2 17 5 13 3 -3 4 -12 1 -19z m34
-55 c13 -16 12 -17 -3 -4 -10 7 -18 15 -18 17 0 8 8 3 21 -13z m32 -48 c-3 -9
-8 -14 -10 -11 -3 3 -2 9 2 15 9 16 15 13 8 -4z m-67 -142 c-8 -15 -15 -25
-16 -21 0 12 23 58 27 54 3 -2 -2 -17 -11 -33z m-65 -140 c-12 -20 -14 -14 -5
12 4 9 9 14 11 11 3 -2 0 -13 -6 -23z m310 -80 c13 -17 13 -17 -6 -3 -11 8
-22 16 -24 17 -2 2 0 3 6 3 6 0 17 -8 24 -17z m-380 -70 c-12 -20 -14 -14 -5
12 4 9 9 14 11 11 3 -2 0 -13 -6 -23z m458 -88 c0 -5 -8 6 -19 25 -11 19 -19
40 -19 45 0 6 8 -6 19 -25 11 -19 19 -39 19 -45z m-518 -42 c-12 -20 -14 -14
-5 12 4 9 9 14 11 11 3 -2 0 -13 -6 -23z"/>
</g>
</svg>
