<?xml version="1.0" standalone="no"?>
<!DOCTYPE svg PUBLIC "-//W3C//DTD SVG 20010904//EN"
 "http://www.w3.org/TR/2001/REC-SVG-20010904/DTD/svg10.dtd">
<svg version="1.0" xmlns="http://www.w3.org/2000/svg"
 width="204.000000pt" height="247.000000pt" viewBox="0 0 204.000000 247.000000"
 preserveAspectRatio="xMidYMid meet">
<metadata>
Created by potrace 1.16, written by Peter Selinger 2001-2019
</metadata>
<g transform="translate(0.000000,247.000000) scale(0.100000,-0.100000)"
fill="#000000" stroke="none">
<path d="M160 2151 c-49 -15 -89 -41 -114 -74 -33 -43 -51 -122 -41 -173 5
-21 8 -51 7 -66 0 -16 5 -28 11 -28 7 0 6 -4 -3 -10 -8 -5 -11 -12 -7 -17 13
-12 27 20 15 34 -18 22 8 15 28 -8 10 -12 35 -29 54 -40 l35 -18 -38 5 c-27 3
-36 1 -31 -8 4 -7 3 -8 -4 -4 -9 5 -12 -145 -14 -595 -2 -479 -6 -603 -16
-605 -7 -1 -8 0 -2 3 11 5 14 1165 3 1210 -3 14 -10 20 -20 16 -14 -5 -13 -8
3 -20 14 -10 16 -16 6 -22 -9 -6 -12 -145 -13 -640 l0 -633 22 -32 c12 -18 38
-43 58 -57 35 -23 41 -24 249 -26 134 -2 212 1 212 7 0 6 -6 10 -13 10 -8 0
-14 7 -14 15 0 8 4 15 9 15 4 0 8 -4 8 -10 0 -5 5 -10 10 -10 6 0 10 7 10 15
0 8 -5 15 -11 15 -5 0 -7 4 -4 10 4 6 11 5 19 -2 15 -15 5 -48 -59 -188 -25
-53 -45 -107 -45 -119 0 -85 111 -131 167 -69 10 11 47 83 84 161 l65 142 231
3 230 2 71 -149 c40 -85 81 -156 94 -165 34 -24 82 -20 116 9 49 41 49 64 -3
178 -26 56 -49 108 -52 114 -4 10 28 13 141 13 l146 0 0 -165 0 -165 70 0 c88
0 139 24 177 82 l28 42 3 675 c2 372 0 691 -3 709 -4 21 -12 32 -23 32 -11 0
-13 -3 -6 -8 20 -13 25 -58 8 -78 -15 -18 -15 -18 -5 2 13 26 3 67 -15 60 -8
-3 -12 3 -10 20 3 25 26 58 26 37 0 -6 -6 -14 -12 -16 -7 -3 -3 -6 10 -6 17
-1 22 4 22 25 0 14 -4 22 -10 19 -5 -3 -7 0 -5 7 7 18 -51 81 -95 104 -43 22
-278 35 -265 15 4 -7 14 -10 22 -7 8 3 11 1 8 -4 -3 -6 -1 -10 4 -10 6 0 11
-7 11 -15 0 -17 -35 -21 -45 -5 -4 6 -3 10 2 9 27 -5 22 4 -12 21 -38 19 -59
20 -643 20 -436 0 -601 -3 -596 -11 5 -8 1 -8 -14 0 -19 10 -19 11 -1 93 22
94 75 211 122 266 17 20 38 45 46 55 13 16 4 17 -180 16 -107 0 -205 -4 -219
-8z m195 -424 c13 -10 15 -16 6 -21 -6 -4 -8 -12 -5 -18 4 -6 0 -14 -7 -19
-14 -9 108 -10 124 -2 10 6 470 4 475 -2 3 -2 5 -22 6 -43 l1 -39 40 2 c22 2
42 4 44 4 2 1 -4 12 -13 26 -19 29 -20 35 -5 35 16 0 59 -36 52 -44 -3 -3 1
-6 11 -6 20 0 38 -42 22 -52 -21 -14 -36 -8 -42 18 -5 19 -9 22 -15 12 -5 -7
-9 -9 -9 -5 0 5 -5 5 -12 1 -7 -5 -4 -10 10 -15 12 -5 22 -14 22 -21 0 -9 -3
-9 -8 -2 -7 10 -38 26 -57 29 -5 1 -16 -4 -24 -9 -11 -8 -13 -8 -7 2 4 6 2 12
-3 12 -6 0 -11 -11 -11 -25 0 -14 -5 -25 -10 -25 -6 0 -9 -6 -8 -12 2 -7 -5
-12 -14 -12 -10 1 -15 -2 -12 -7 3 -5 -2 -9 -12 -9 -11 0 -15 6 -11 20 6 22
-17 28 -29 8 -4 -7 -3 -8 4 -4 7 4 12 2 12 -3 0 -15 -10 -14 -29 3 -11 10 -22
12 -30 6 -12 -7 -11 -11 3 -25 19 -19 17 -36 -5 -44 -12 -4 -12 -2 0 12 11 15
11 17 -1 17 -12 0 -16 -13 -17 -55 -1 -45 3 -56 19 -65 16 -8 20 -8 20 3 0 8
6 20 14 27 8 6 12 18 9 26 -3 8 -1 14 5 14 13 0 10 -23 -5 -41 -18 -23 -21
-75 -3 -64 6 4 5 -4 -1 -19 -7 -14 -16 -24 -22 -23 -5 1 -12 -4 -15 -12 -3 -8
0 -11 7 -7 13 9 14 -4 1 -24 -8 -12 -10 -12 -10 -1 0 33 -11 0 -14 -45 -3 -27
-2 -43 1 -36 2 6 9 10 14 6 5 -3 9 0 9 7 0 7 2 10 5 7 12 -12 -7 -57 -21 -51
-10 4 -14 -3 -14 -26 0 -18 5 -31 13 -31 8 0 7 -4 -3 -10 -12 -8 -13 -13 -2
-30 15 -25 15 -33 0 -24 -6 4 -8 3 -4 -4 10 -16 14 -72 6 -72 -13 0 -21 -63
-9 -71 8 -4 8 -9 1 -13 -6 -4 -17 5 -25 20 -9 16 -17 23 -21 16 -5 -8 -15 -8
-32 -2 -37 15 -41 13 -36 -19 2 -16 0 -31 -6 -35 -5 -3 -9 8 -8 27 1 22 -4 32
-14 32 -12 0 -15 -16 -16 -82 0 -46 4 -83 8 -83 5 0 6 -5 3 -10 -4 -6 -1 -17
5 -25 10 -12 14 -12 27 1 9 8 12 18 9 22 -4 3 -11 0 -16 -8 -5 -8 -12 -11 -16
-7 -8 8 62 77 78 77 5 0 6 10 3 23 -7 21 -6 21 7 3 14 -18 15 -18 20 8 4 18 1
29 -8 33 -8 3 -14 11 -14 19 0 22 16 16 28 -11 9 -20 8 -34 -5 -67 -9 -23 -19
-36 -21 -30 -2 7 -8 12 -13 12 -6 0 -5 -10 2 -22 9 -18 9 -21 -1 -11 -14 13
-43 6 -34 -9 3 -5 0 -23 -7 -40 -10 -25 -10 -31 2 -39 11 -7 11 -9 1 -9 -7 0
-10 -4 -7 -10 3 -5 2 -10 -3 -10 -6 0 -13 7 -16 16 -4 10 -2 13 7 8 6 -4 3 2
-8 13 -11 11 -22 19 -24 16 -10 -8 -8 -93 2 -93 6 0 7 18 4 43 -5 39 -5 41 8
17 7 -14 11 -29 8 -34 -4 -5 -1 -6 5 -2 8 5 10 2 6 -8 -3 -9 -10 -16 -15 -16
-5 0 -9 -9 -9 -21 0 -31 -20 -61 -36 -55 -14 5 -16 -2 -17 -51 0 -13 -4 -23
-9 -23 -5 0 -6 9 -3 20 7 21 -10 28 -18 8 -4 -10 -8 -10 -15 1 -7 10 -6 19 4
28 18 18 18 23 -2 51 -9 13 -13 26 -9 30 3 3 10 0 15 -8 8 -13 10 -12 10 3 0
15 -6 16 -42 11 -24 -4 -45 -8 -46 -10 -2 -1 -6 -21 -9 -43 -4 -30 -2 -41 8
-41 10 0 10 -3 1 -12 -14 -14 -16 -88 -3 -88 15 0 26 23 23 45 -2 16 0 16 11
-5 24 -43 2 -50 -152 -48 -101 1 -122 3 -81 8 30 4 49 7 42 8 -7 1 -10 7 -7
12 4 6 -10 10 -34 10 -23 0 -41 -4 -41 -9 0 -17 -55 -32 -82 -22 -14 5 -29 7
-32 3 -4 -3 -9 4 -13 16 -3 12 -9 19 -14 16 -5 -3 -9 2 -9 10 0 9 -5 16 -11
16 -5 0 -7 -6 -3 -13 4 -6 -2 -4 -14 6 -20 18 -20 47 0 47 6 0 7 -8 3 -17 -5
-14 -4 -15 6 -6 10 10 15 8 26 -10 7 -12 16 -30 19 -40 5 -13 10 -15 20 -6 11
9 14 8 14 -1 0 -25 13 -1 16 31 3 27 2 30 -11 19 -13 -11 -15 -8 -15 15 0 18
4 26 13 22 9 -3 14 7 16 35 2 33 -1 39 -14 34 -13 -4 -14 -2 -5 14 6 12 10
213 10 569 l0 551 75 1 c41 1 80 3 85 4 6 1 15 3 22 4 6 0 8 4 5 8 -4 3 -42 6
-84 6 l-78 -1 77 7 c43 4 80 10 84 14 8 8 1 9 -81 8 -43 0 -54 2 -40 9 31 13
109 12 130 -3z m-272 -583 l2 -579 5 549 c4 434 8 550 18 552 7 1 8 0 2 -3 -7
-3 -10 -192 -10 -565 l0 -560 22 -17 c13 -11 18 -23 13 -30 -6 -11 -9 -10 -16
0 -4 8 -14 14 -21 14 -7 1 -12 6 -11 13 2 7 -2 12 -7 12 -7 0 -10 207 -10 602
0 331 2 599 5 596 3 -3 7 -266 8 -584z m1531 578 c2 -4 -250 -7 -560 -7 -310
0 -564 3 -564 8 0 9 1117 9 1124 -1z m288 -13 c16 -6 28 -15 28 -20 0 -5 8 -6
18 -3 15 5 14 4 -2 -6 -13 -9 -24 -9 -43 -1 -31 14 -34 14 -27 -4 4 -8 10 -13
14 -10 5 3 12 0 16 -6 10 -16 13 -160 3 -154 -4 3 -11 0 -14 -5 -5 -7 -11 -6
-19 5 -9 13 -20 15 -49 10 -20 -4 -35 -11 -32 -15 3 -5 -3 -11 -12 -13 -10 -2
-1 -3 20 0 25 2 36 0 32 -7 -3 -5 -24 -10 -46 -10 -33 0 -40 -3 -37 -17 2 -11
12 -18 26 -17 12 0 22 -4 22 -9 0 -5 -11 -7 -25 -5 -14 3 -25 2 -25 -3 0 -4 8
-9 17 -11 16 -3 16 -4 0 -20 -9 -9 -17 -21 -17 -27 0 -6 -7 -11 -15 -11 -14 0
-15 -56 -13 -490 2 -270 0 -490 -4 -490 -5 0 -9 222 -10 493 l-3 492 -2 -482
c-2 -311 -7 -483 -13 -483 -6 0 -10 170 -10 480 0 313 -3 480 -10 480 -7 0
-10 -167 -10 -480 l0 -480 -30 0 c-23 0 -30 5 -30 19 0 34 -16 32 -33 -4 -9
-19 -23 -35 -30 -35 -15 0 -37 20 -37 34 0 5 6 2 13 -7 20 -28 57 18 57 72 0
17 4 33 10 36 6 4 7 -1 3 -12 -4 -14 -3 -15 6 -7 6 6 13 23 14 39 2 26 0 27
-43 28 -41 1 -45 -1 -42 -22 2 -20 1 -21 -14 -7 -8 9 -12 20 -9 26 3 5 -1 10
-9 10 -10 0 -13 -6 -10 -15 10 -25 -4 -17 -21 13 l-16 27 6 -28 c4 -19 2 -26
-5 -22 -10 6 -6 165 6 231 6 34 -12 56 -27 33 -7 -12 -9 -11 -9 1 0 13 -1 13
-10 0 -5 -8 -9 -24 -9 -35 l0 -20 9 20 c7 17 9 15 9 -12 1 -18 -3 -33 -7 -33
-4 0 -9 -13 -10 -30 -1 -16 3 -30 8 -30 6 0 8 -5 5 -11 -5 -7 -12 -4 -19 8
-18 25 -28 55 -17 48 14 -8 19 17 9 45 -5 13 -6 35 -3 48 3 14 2 21 -4 18 -5
-4 -7 3 -3 16 4 15 2 19 -7 14 -8 -6 -11 -24 -8 -57 3 -27 1 -51 -4 -54 -5 -4
-6 0 -3 8 3 8 -2 17 -10 20 -9 4 -16 12 -16 19 0 10 2 10 9 -1 6 -10 10 -10
16 -1 4 7 0 13 -11 16 -25 7 -44 49 -44 99 0 22 -6 64 -13 93 -10 35 -11 52
-3 55 5 2 0 14 -12 27 -22 23 -22 23 -37 4 -8 -10 -15 -22 -15 -26 0 -13 18
-9 23 5 2 6 8 9 12 4 5 -4 0 -14 -11 -21 -15 -12 -17 -17 -6 -27 10 -11 12
-10 12 4 0 9 5 17 10 17 6 0 10 -7 10 -15 0 -8 -5 -15 -11 -15 -6 0 -8 -10 -4
-22 5 -21 5 -22 -7 -4 -35 51 -60 90 -53 84 4 -4 23 12 41 35 28 34 34 51 34
90 0 26 4 47 9 47 10 0 2 -87 -10 -112 -12 -22 -11 -25 5 -31 9 -4 14 2 15 16
8 193 7 249 -8 255 -18 6 -31 22 -31 37 1 6 5 2 11 -7 20 -34 29 -17 29 52 l0
70 -76 0 c-63 0 -74 -2 -65 -13 8 -10 7 -14 -3 -14 -11 0 -14 18 -11 89 2 49
5 91 7 93 7 8 488 6 499 -1 8 -4 9 -3 5 4 -4 7 -1 12 9 12 9 0 14 -4 11 -8 -3
-5 8 -8 24 -8 16 0 28 4 27 9 -1 5 6 11 16 12 19 4 23 -11 5 -18 -7 -2 6 -4
29 -3 24 0 43 4 43 9 0 4 5 7 11 7 5 0 8 -4 4 -9 -3 -6 3 -9 14 -8 11 1 18 3
15 6 -2 2 8 13 23 23 l28 18 -25 1 c-14 1 -32 1 -42 0 -9 -1 -19 2 -22 7 -7
11 62 5 96 -9z m-833 -1023 c9 -11 9 -15 -1 -19 -9 -4 -9 -6 2 -7 12 -1 39
-45 68 -112 2 -5 -3 -5 -12 -2 -9 3 -16 3 -16 0 0 -4 11 -11 25 -16 14 -5 25
-16 25 -23 0 -12 -28 -77 -33 -77 -1 0 -2 11 -2 24 0 13 3 22 7 20 4 -2 9 -1
12 4 2 4 -4 9 -15 9 -15 1 -19 -5 -19 -27 0 -44 28 -49 43 -7 9 24 22 21 35
-9 9 -18 9 -23 1 -18 -7 4 -10 1 -7 -7 3 -8 11 -13 17 -12 9 3 13 -10 10 -33
0 -4 5 -10 13 -15 7 -4 -72 -8 -175 -8 -103 0 -187 2 -187 4 0 2 3 10 6 19 8
22 25 20 18 -1 -5 -15 -4 -15 4 -3 6 8 8 18 5 23 -8 13 48 138 59 131 7 -4 6
-9 0 -13 -7 -4 -7 -12 -3 -20 6 -10 11 -5 16 17 6 29 10 31 52 34 31 2 48 8
50 18 4 13 3 13 -6 0 -15 -21 -15 4 0 32 9 18 9 20 -4 15 -11 -4 -14 -2 -11 8
3 7 -4 23 -15 34 -18 18 -19 24 -9 36 17 18 33 19 47 1z"/>
</g>
</svg>
