<?xml version="1.0" standalone="no"?>
<!DOCTYPE svg PUBLIC "-//W3C//DTD SVG 20010904//EN"
 "http://www.w3.org/TR/2001/REC-SVG-20010904/DTD/svg10.dtd">
<svg version="1.0" xmlns="http://www.w3.org/2000/svg"
 width="204.000000pt" height="247.000000pt" viewBox="0 0 204.000000 247.000000"
 preserveAspectRatio="xMidYMid meet">

<g transform="translate(0.000000,247.000000) scale(0.100000,-0.100000)"
fill="#000000" stroke="none">
<path d="M103 2124 c-60 -35 -94 -96 -95 -171 -1 -95 4 -143 16 -143 6 0 4 -4
-4 -10 -8 -5 -11 -12 -7 -17 13 -12 27 20 15 34 -18 22 8 15 28 -8 10 -12 35
-29 54 -40 l35 -18 -38 5 c-27 3 -36 1 -31 -8 4 -7 3 -8 -4 -4 -9 5 -12 -145
-14 -595 -2 -479 -6 -603 -16 -605 -7 -1 -8 0 -2 3 11 5 14 1165 3 1210 -3 14
-10 20 -20 16 -14 -5 -13 -8 3 -20 14 -10 16 -16 6 -22 -9 -6 -12 -143 -13
-632 0 -343 3 -632 6 -642 8 -18 25 -24 25 -7 0 6 5 10 11 10 6 0 8 -7 5 -16
-5 -14 -4 -15 9 -4 12 10 15 10 15 -3 0 -8 7 -20 15 -27 8 -7 14 -20 14 -29
-1 -13 -2 -13 -6 2 -2 9 -9 15 -14 12 -5 -4 -9 1 -9 10 0 11 -5 15 -14 12 -7
-3 -18 -2 -22 1 -5 4 2 -5 16 -20 14 -15 32 -28 40 -30 8 -2 21 -9 28 -16 17
-15 422 -17 422 -1 0 5 -6 9 -13 9 -8 0 -14 7 -14 15 0 8 4 15 9 15 4 0 8 -4
8 -10 0 -5 5 -10 10 -10 6 0 10 7 10 15 0 8 -5 15 -11 15 -5 0 -7 4 -4 10 4 6
11 5 19 -2 16 -15 9 -37 -55 -181 -27 -60 -49 -119 -49 -132 0 -40 49 -87 92
-88 60 -2 78 20 147 169 36 77 69 145 74 151 7 10 67 13 237 13 l227 0 74
-151 c55 -113 81 -154 101 -165 42 -22 76 -17 109 15 42 42 39 82 -16 191 -25
49 -45 94 -45 100 0 6 53 10 145 10 l145 0 0 -165 0 -165 68 0 c90 0 147 28
182 91 l25 44 3 670 c2 369 0 685 -3 703 -4 21 -12 32 -23 32 -11 0 -13 -3 -6
-8 20 -13 25 -58 8 -78 -15 -18 -15 -18 -5 2 13 26 3 67 -15 60 -8 -3 -12 3
-10 20 3 25 26 58 26 37 0 -6 -6 -14 -12 -16 -7 -3 -3 -6 10 -6 16 -1 22 5 22
19 0 11 -4 20 -10 20 -5 0 -7 6 -4 14 9 25 -68 93 -126 110 -62 19 -245 23
-235 5 4 -6 14 -8 22 -5 8 3 11 1 8 -4 -3 -6 -1 -10 4 -10 6 0 11 -7 11 -15 0
-17 -35 -21 -45 -5 -4 6 -3 10 2 9 27 -5 22 4 -12 21 -38 19 -59 20 -643 20
-436 0 -601 -3 -596 -11 5 -8 1 -8 -14 0 -19 10 -19 11 -1 93 21 90 75 211
118 261 62 74 77 67 -155 67 -206 0 -210 -1 -251 -26z m87 -385 c0 -6 -7 -9
-15 -5 -8 3 -15 1 -15 -4 0 -6 8 -10 17 -10 14 0 13 -3 -5 -16 -26 -18 -42
-11 -42 17 0 11 4 18 9 14 5 -3 12 -1 16 5 8 14 35 13 35 -1z m165 -12 c13
-10 15 -16 6 -21 -6 -4 -8 -12 -5 -18 4 -6 0 -14 -7 -19 -14 -9 108 -10 124
-2 10 6 470 4 475 -2 3 -2 5 -22 6 -43 l1 -39 40 2 c22 2 42 4 44 4 2 1 -4 12
-13 26 -19 29 -20 35 -5 35 16 0 59 -36 52 -44 -3 -3 1 -6 11 -6 20 0 38 -42
22 -52 -21 -14 -36 -8 -42 18 -5 19 -9 22 -15 12 -5 -7 -9 -9 -9 -5 0 5 -5 5
-12 1 -7 -5 -4 -10 10 -15 12 -5 22 -14 22 -21 0 -9 -3 -9 -8 -2 -7 10 -38 26
-57 29 -5 1 -16 -4 -24 -9 -11 -8 -13 -8 -7 2 4 6 2 12 -3 12 -6 0 -11 -11
-11 -25 0 -14 -5 -25 -10 -25 -6 0 -9 -6 -8 -12 2 -7 -5 -12 -14 -12 -10 1
-15 -2 -12 -7 3 -5 -2 -9 -12 -9 -11 0 -15 6 -11 20 6 22 -17 28 -29 8 -4 -7
-3 -8 4 -4 7 4 12 2 12 -3 0 -15 -10 -14 -29 3 -11 10 -22 12 -30 6 -12 -7
-11 -11 3 -25 19 -19 17 -36 -5 -44 -12 -4 -12 -2 0 12 11 15 11 17 -1 17 -12
0 -16 -13 -17 -55 -1 -45 3 -56 19 -65 16 -8 20 -8 20 3 0 8 6 20 14 27 8 6
12 18 9 26 -3 8 -1 14 5 14 13 0 10 -23 -5 -41 -18 -23 -21 -75 -3 -64 6 4 5
-4 -1 -19 -7 -14 -16 -24 -22 -23 -5 1 -12 -4 -15 -12 -3 -8 0 -11 7 -7 13 9
14 -4 1 -24 -8 -12 -10 -12 -10 -1 0 33 -11 0 -14 -45 -3 -27 -2 -43 1 -36 2
6 9 10 14 6 5 -3 9 0 9 7 0 7 2 10 5 7 12 -12 -7 -57 -21 -51 -10 4 -14 -3
-14 -26 0 -18 5 -31 13 -31 8 0 7 -4 -3 -10 -12 -8 -13 -13 -2 -30 15 -25 15
-33 0 -24 -6 4 -8 3 -4 -4 10 -16 14 -72 6 -72 -13 0 -21 -63 -9 -71 8 -4 8
-9 1 -13 -6 -4 -17 5 -25 20 -9 16 -17 23 -21 16 -5 -8 -15 -8 -32 -2 -37 15
-41 13 -36 -19 2 -16 0 -31 -6 -35 -5 -3 -9 8 -8 27 1 22 -4 32 -14 32 -12 0
-15 -16 -16 -82 0 -46 4 -83 8 -83 5 0 6 -5 3 -10 -4 -6 -1 -17 5 -25 10 -12
14 -12 27 1 9 8 12 18 9 22 -4 3 -11 0 -16 -8 -5 -8 -12 -11 -16 -7 -8 8 62
77 78 77 5 0 6 10 3 23 -7 21 -6 21 7 3 14 -18 15 -18 20 8 4 18 1 29 -8 33
-8 3 -14 11 -14 19 0 22 16 16 28 -11 9 -20 8 -34 -5 -67 -9 -23 -19 -36 -21
-30 -2 7 -8 12 -13 12 -6 0 -5 -10 2 -22 9 -18 9 -21 -1 -11 -14 13 -43 6 -34
-9 3 -5 0 -23 -7 -40 -10 -25 -10 -31 2 -39 11 -7 11 -9 1 -9 -7 0 -10 -4 -7
-10 3 -5 2 -10 -3 -10 -6 0 -13 7 -16 16 -4 10 -2 13 7 8 6 -4 3 2 -8 13 -11
11 -22 19 -24 16 -10 -8 -8 -93 2 -93 6 0 7 18 4 43 -5 39 -5 41 8 17 7 -14
11 -29 8 -34 -4 -5 -1 -6 5 -2 8 5 10 2 6 -8 -3 -9 -10 -16 -15 -16 -5 0 -9
-9 -9 -21 0 -31 -20 -61 -36 -55 -14 5 -16 -2 -17 -51 0 -13 -4 -23 -9 -23 -5
0 -6 9 -3 20 7 21 -10 28 -18 8 -4 -10 -8 -10 -15 1 -7 10 -6 19 4 28 18 18
18 23 -2 51 -9 13 -13 26 -9 30 3 3 10 0 15 -8 8 -13 10 -12 10 3 0 15 -6 16
-42 11 -24 -4 -45 -8 -46 -10 -2 -1 -6 -21 -9 -43 -4 -30 -2 -41 8 -41 10 0
10 -3 1 -12 -14 -14 -16 -88 -3 -88 15 0 26 23 23 45 -2 16 0 16 11 -5 24 -43
2 -50 -152 -48 -101 1 -122 3 -81 8 30 4 49 7 42 8 -7 1 -10 7 -7 12 4 6 -10
10 -34 10 -23 0 -41 -4 -41 -9 0 -5 -13 -14 -28 -20 -33 -14 -88 1 -76 20 4 8
9 7 15 -2 5 -8 9 -9 10 -4 8 64 8 67 -7 55 -12 -10 -14 -8 -14 15 0 18 4 26
13 22 9 -3 14 7 16 35 2 33 -1 39 -14 34 -13 -4 -14 -2 -5 14 6 12 10 213 10
569 l0 551 75 1 c41 1 80 3 85 4 6 1 15 3 22 4 6 0 8 4 5 8 -4 3 -42 6 -84 6
l-78 -1 77 7 c43 4 80 10 84 14 8 8 1 9 -81 8 -43 0 -54 2 -40 9 31 13 109 12
130 -3z m-272 -583 l2 -579 5 549 c4 434 8 550 18 552 7 1 8 0 2 -3 -7 -3 -10
-192 -10 -565 l0 -560 22 -17 c13 -11 18 -23 13 -30 -6 -11 -9 -10 -16 0 -4 8
-14 14 -21 14 -7 1 -12 6 -11 13 2 7 -2 12 -7 12 -7 0 -10 207 -10 602 0 331
2 599 5 596 3 -3 7 -266 8 -584z m387 576 c0 -5 -11 -10 -25 -10 -14 0 -25 5
-25 10 0 6 11 10 25 10 14 0 25 -4 25 -10z m1144 2 c2 -4 -250 -7 -560 -7
-310 0 -564 3 -564 8 0 9 1117 9 1124 -1z m136 -7 c0 -8 -2 -15 -4 -15 -2 0
-6 7 -10 15 -3 8 -1 15 4 15 6 0 10 -7 10 -15z m63 -10 c49 -9 40 -18 -21 -21
-32 -1 -41 1 -27 7 11 4 14 8 8 8 -7 1 -13 9 -13 19 0 11 3 13 8 5 4 -6 24
-14 45 -18z m89 4 c16 -6 28 -15 28 -20 0 -5 8 -6 18 -3 15 5 14 4 -2 -6 -13
-9 -24 -9 -43 -1 -31 14 -34 14 -27 -4 4 -8 10 -13 14 -10 5 3 12 0 16 -6 10
-16 13 -160 3 -154 -4 3 -11 0 -14 -5 -5 -7 -11 -6 -19 5 -9 13 -20 15 -49 10
-20 -4 -35 -11 -32 -15 3 -5 -3 -11 -12 -13 -10 -2 -1 -3 20 0 25 2 36 0 32
-7 -3 -5 -24 -10 -46 -10 -33 0 -40 -3 -37 -17 2 -11 12 -18 26 -17 12 0 22
-4 22 -9 0 -5 -11 -7 -25 -5 -14 3 -25 2 -25 -3 0 -4 8 -9 17 -11 16 -3 16 -4
0 -20 -9 -9 -17 -21 -17 -27 0 -6 -7 -11 -15 -11 -14 0 -15 -56 -13 -490 2
-270 0 -490 -4 -490 -5 0 -9 222 -10 493 l-3 492 -2 -482 c-2 -311 -7 -483
-13 -483 -6 0 -10 170 -10 480 0 313 -3 480 -10 480 -7 0 -10 -167 -10 -480
l0 -480 -30 0 c-23 0 -30 5 -30 19 0 34 -16 32 -33 -4 -9 -19 -23 -35 -30 -35
-15 0 -37 20 -37 34 0 5 6 2 13 -7 20 -28 57 18 57 72 0 17 4 33 10 36 6 4 7
-1 3 -12 -4 -14 -3 -15 6 -7 6 6 13 23 14 39 2 26 0 27 -43 28 -41 1 -45 -1
-42 -22 2 -20 1 -21 -14 -7 -8 9 -12 20 -9 26 3 5 -1 10 -9 10 -10 0 -13 -6
-10 -15 10 -25 -4 -17 -21 13 l-16 27 6 -28 c4 -19 2 -26 -5 -22 -10 6 -6 165
6 231 6 34 -12 56 -27 33 -7 -12 -9 -11 -9 1 0 13 -1 13 -10 0 -5 -8 -9 -24
-9 -35 l0 -20 9 20 c7 17 9 15 9 -12 1 -18 -3 -33 -7 -33 -4 0 -9 -13 -10 -30
-1 -16 3 -30 8 -30 6 0 8 -5 5 -11 -5 -7 -12 -4 -19 8 -18 25 -28 55 -17 48
14 -8 19 17 9 45 -5 13 -6 35 -3 48 3 14 2 21 -4 18 -5 -4 -7 3 -3 16 4 15 2
19 -7 14 -8 -6 -11 -24 -8 -57 3 -27 1 -51 -4 -54 -5 -4 -6 0 -3 8 3 8 -2 17
-10 20 -9 4 -16 12 -16 19 0 10 2 10 9 -1 6 -10 10 -10 16 -1 4 7 0 13 -11 16
-25 7 -44 49 -44 99 0 22 -6 64 -13 93 -10 35 -11 52 -3 55 5 2 0 14 -12 27
-22 23 -22 23 -37 4 -8 -10 -15 -22 -15 -26 0 -13 18 -9 23 5 2 6 8 9 12 4 5
-4 0 -14 -11 -21 -15 -12 -17 -17 -6 -27 10 -11 12 -10 12 4 0 9 5 17 10 17 6
0 10 -7 10 -15 0 -8 -5 -15 -11 -15 -6 0 -8 -10 -4 -22 5 -21 5 -22 -7 -4 -35
51 -60 90 -53 84 4 -4 23 12 41 35 28 34 34 51 34 90 0 26 4 47 9 47 10 0 2
-87 -10 -112 -12 -22 -11 -25 5 -31 9 -4 14 2 15 16 8 193 7 249 -8 255 -18 6
-31 22 -31 37 1 6 5 2 11 -7 20 -34 29 -17 29 52 l0 70 -76 0 c-63 0 -74 -2
-65 -13 8 -10 7 -14 -3 -14 -11 0 -14 18 -11 89 2 49 5 91 7 93 7 8 488 6 499
-1 8 -4 9 -3 5 4 -4 7 -1 12 9 12 9 0 14 -4 11 -8 -3 -5 8 -8 24 -8 16 0 28 4
27 9 -1 5 6 11 16 12 19 4 23 -11 5 -18 -7 -2 6 -4 29 -3 24 0 43 4 43 9 0 4
5 7 11 7 5 0 8 -4 4 -9 -3 -6 3 -9 14 -8 11 1 18 3 15 6 -2 2 8 13 23 23 l28
18 -25 1 c-14 1 -32 1 -42 0 -9 -1 -19 2 -22 7 -7 11 62 5 96 -9z m-264 -15
c-3 -2 -287 -5 -631 -7 -344 -1 -620 1 -614 5 13 9 1253 11 1245 2z m-631 -20
c-3 -3 -12 -4 -19 -1 -8 3 -5 6 6 6 11 1 17 -2 13 -5z m958 -24 c3 -11 12 -20
20 -20 8 0 11 -7 8 -20 -3 -11 -10 -20 -15 -20 -5 0 -7 4 -3 10 3 5 -3 18 -15
30 -21 21 -26 40 -11 40 5 0 13 -9 16 -20z m-25 -40 c0 -5 -4 -10 -10 -10 -5
0 -10 5 -10 10 0 6 5 10 10 10 6 0 10 -4 10 -10z m-942 -67 c-20 -5 -20 -7
-18 -80 1 -34 -3 -53 -10 -53 -6 0 -9 4 -6 9 4 5 -3 7 -15 4 -16 -4 -17 -8 -7
-14 9 -6 9 -9 1 -9 -7 0 -17 9 -23 20 -9 16 -7 22 7 27 25 10 43 29 43 47 0 9
-6 16 -12 16 -9 0 -8 4 2 10 8 5 11 10 5 10 -5 0 -3 5 5 10 8 5 22 9 30 9 11
-1 10 -3 -2 -6z m195 -60 c-7 -2 -19 -2 -25 0 -7 3 -2 5 12 5 14 0 19 -2 13
-5z m-23 -24 c0 -5 4 -8 9 -5 15 10 41 -5 41 -23 0 -10 -9 -16 -22 -17 -13 0
-32 -4 -43 -9 -19 -7 -19 -7 -1 7 23 18 12 42 -15 35 -12 -3 -19 0 -19 9 0 8
10 14 25 14 14 0 25 -5 25 -11z m810 -9 c0 -5 -4 -10 -10 -12 -5 -1 -11 -14
-13 -27 -2 -14 -10 -27 -18 -29 -11 -3 -11 -1 1 7 10 7 11 11 3 11 -22 0 -28
-5 -26 -20 2 -10 0 -10 -3 -2 -8 17 -27 15 -21 -2 4 -11 -10 -14 -66 -14 -40
0 -62 3 -49 5 12 2 20 9 17 14 -4 5 3 9 14 9 12 0 21 -4 21 -10 0 -16 23 -11
50 10 19 15 21 20 8 20 -9 0 -18 -6 -21 -12 -2 -8 -8 -9 -13 -4 -5 5 -3 11 5
14 10 3 3 11 -20 24 -20 11 -25 16 -11 13 12 -4 22 -3 22 2 0 5 15 9 33 10 19
0 23 -1 10 -4 -34 -7 -29 -32 6 -31 20 1 33 8 41 24 11 20 40 23 40 4z m-1084
-29 c-3 -5 1 -12 10 -15 8 -3 12 -11 8 -17 -4 -8 1 -9 17 -4 18 5 16 1 -9 -14
-18 -12 -38 -19 -43 -16 -14 9 0 25 16 18 11 -4 13 -1 9 11 -3 9 -10 14 -14
11 -5 -3 -7 3 -5 12 5 24 4 23 11 23 3 0 3 -4 0 -9z m1094 -1 c0 -5 -5 -10
-11 -10 -5 0 -7 5 -4 10 3 6 8 10 11 10 2 0 4 -4 4 -10z m-145 -10 c-3 -5 -11
-10 -16 -10 -6 0 -7 5 -4 10 3 6 11 10 16 10 6 0 7 -4 4 -10z m-659 -15 c-11
-8 -27 -15 -35 -14 -9 0 -2 7 14 14 39 18 45 18 21 0z m11 -29 c0 -8 -6 -12
-14 -9 -7 3 -10 9 -7 14 8 14 21 11 21 -5z m61 -57 c2 6 -2 18 -8 26 -9 11 -9
15 -1 15 6 0 12 -3 12 -7 3 -14 5 -93 3 -93 -4 0 -54 100 -54 107 0 5 10 -7
22 -26 12 -19 24 -29 26 -22z m-393 31 c3 -5 1 -10 -4 -10 -6 0 -11 5 -11 10
0 6 2 10 4 10 3 0 8 -4 11 -10z m14 -274 c12 -8 5 -50 -9 -54 -6 -2 -7 -8 -4
-14 3 -5 0 -9 -7 -7 -26 3 -39 -1 -39 -12 0 -8 4 -8 14 0 10 8 16 9 21 1 3 -5
1 -10 -5 -10 -6 0 -9 -4 -6 -9 7 -10 -24 -75 -31 -67 -3 3 2 17 11 31 15 23
15 26 1 32 -11 4 -15 13 -11 29 3 12 2 26 -4 29 -12 8 -13 25 -1 25 5 0 11
-10 14 -22 4 -12 9 -20 12 -17 3 3 -1 21 -9 39 -10 25 -11 41 -4 62 l10 29 18
-29 c10 -17 23 -33 29 -36z m396 -147 c4 -51 4 -53 -9 -24 -7 17 -10 31 -6 33
4 1 5 15 2 30 -3 15 -2 24 2 21 3 -3 8 -30 11 -60z m-465 -49 c0 -5 -5 -10
-11 -10 -5 0 -7 5 -4 10 3 6 8 10 11 10 2 0 4 -4 4 -10z m-69 -46 c5 -7 3 -11
-6 -11 -10 0 -15 10 -14 26 0 16 3 20 6 11 3 -8 10 -20 14 -26z m-71 -64 c0
-5 -5 -10 -11 -10 -5 0 -7 5 -4 10 3 6 8 10 11 10 2 0 4 -4 4 -10z m44 -91
c-8 -17 -18 -29 -21 -26 -2 3 3 16 11 29 9 14 13 28 9 33 -5 4 -2 5 4 1 10 -6
9 -14 -3 -37z m707 18 c-10 -9 -11 -8 -5 6 3 10 9 15 12 12 3 -3 0 -11 -7 -18z
m-352 -1 c9 -11 9 -15 -1 -19 -9 -4 -9 -6 2 -7 12 -1 39 -45 68 -112 2 -5 -3
-5 -12 -2 -9 3 -16 3 -16 0 0 -4 11 -11 25 -16 14 -5 25 -16 25 -23 0 -12 -28
-77 -33 -77 -1 0 -2 11 -2 24 0 13 3 22 7 20 4 -2 9 -1 12 4 2 4 -4 9 -15 9
-15 1 -19 -5 -19 -27 0 -44 28 -49 43 -7 9 24 22 21 35 -9 9 -18 9 -23 1 -18
-7 4 -10 1 -7 -7 3 -8 11 -13 17 -12 9 3 13 -10 10 -33 0 -4 5 -10 13 -15 7
-4 -72 -8 -175 -8 -103 0 -187 2 -187 4 0 2 3 10 6 19 8 22 25 20 18 -1 -5
-15 -4 -15 4 -3 6 8 8 18 5 23 -8 13 48 138 59 131 7 -4 6 -9 0 -13 -7 -4 -7
-12 -3 -20 6 -10 11 -5 16 17 6 29 10 31 52 34 31 2 48 8 50 18 4 13 3 13 -6
0 -15 -21 -15 4 0 32 9 18 9 20 -4 15 -11 -4 -14 -2 -11 8 3 7 -4 23 -15 34
-18 18 -19 24 -9 36 17 18 33 19 47 1z m-62 -64 c-10 -10 -17 -22 -17 -26 0
-4 -9 -19 -20 -33 -11 -14 -20 -23 -20 -19 0 16 53 96 63 96 5 0 3 -8 -6 -18z
m423 2 c0 -8 -5 -12 -11 -8 -8 4 -9 -1 -4 -17 9 -28 3 -24 -15 10 -8 15 -8 21
-1 17 6 -4 11 -2 11 3 0 6 5 11 10 11 6 0 10 -7 10 -16z m-420 -49 c-7 -14
-17 -25 -21 -25 -5 0 0 13 9 29 20 36 31 32 12 -4z m490 -71 c0 -8 -4 -12 -10
-9 -5 3 -10 13 -10 21 0 8 5 12 10 9 6 -3 10 -13 10 -21z m-27 -5 c3 -11 15
-23 26 -26 12 -3 21 -11 21 -18 0 -7 5 -15 12 -17 7 -3 6 -7 -5 -11 -12 -5
-17 -1 -17 13 0 11 -5 20 -11 20 -6 0 -8 -9 -3 -22 10 -35 -1 -18 -24 35 -12
26 -17 47 -13 47 5 0 11 -9 14 -21z m-1433 1 c0 -5 -2 -10 -4 -10 -3 0 -8 5
-11 10 -3 6 -1 10 4 10 6 0 11 -4 11 -10z m455 -9 c3 -5 1 -12 -5 -16 -5 -3
-10 1 -10 9 0 18 6 21 15 7z m-389 -13 c4 -6 3 -8 -4 -4 -5 3 -12 1 -14 -6 -3
-7 -10 -8 -17 -4 -11 7 -11 10 0 17 19 12 27 11 35 -3z m1475 -101 c-10 -9
-11 -8 -5 6 3 10 9 15 12 12 3 -3 0 -11 -7 -18z m119 -12 c0 -8 -2 -15 -4 -15
-2 0 -6 7 -10 15 -3 8 -1 15 4 15 6 0 10 -7 10 -15z m-30 -5 c10 -7 -10 -9
-65 -8 -69 1 -74 2 -35 8 68 11 84 11 100 0z"/>
<path d="M1070 1584 c0 -3 7 -12 15 -20 13 -13 15 -13 15 -1 0 8 -7 17 -15 21
-8 3 -15 3 -15 0z"/>
<path d="M800 1330 c-12 -8 -13 -13 -3 -29 9 -14 9 -21 1 -23 -6 -2 -9 -9 -7
-14 2 -6 15 3 29 20 14 16 19 26 11 21 -11 -6 -13 -4 -8 8 8 20 -4 29 -23 17z"/>
<path d="M578 543 c0 -10 0 -29 1 -41 1 -13 -3 -30 -10 -38 -10 -12 -9 -13 4
-9 21 9 32 56 15 67 -10 7 -8 8 4 4 10 -3 20 -1 23 4 4 6 1 10 -5 10 -6 0 -8
5 -5 10 3 6 -1 10 -9 10 -9 0 -17 -8 -18 -17z"/>
<path d="M621 519 c-7 -12 -10 -23 -8 -26 3 -3 11 5 17 17 6 12 10 23 8 25 -2
2 -10 -5 -17 -16z"/>
<path d="M178 373 c7 -3 16 -2 19 1 4 3 -2 6 -13 5 -11 0 -14 -3 -6 -6z"/>
<path d="M1890 1696 c0 -2 7 -7 16 -10 8 -3 12 -2 9 4 -6 10 -25 14 -25 6z"/>
<path d="M1337 873 c-3 -3 -3 -12 0 -21 4 -13 1 -13 -11 2 -19 24 -27 19 -15
-11 11 -30 27 -29 35 2 8 32 22 32 30 -1 5 -21 11 -25 38 -22 26 2 31 7 31 28
0 23 -4 25 -52 27 -28 1 -53 -1 -56 -4z m103 -18 c0 -8 -4 -15 -10 -15 -5 0
-10 7 -10 15 0 8 5 15 10 15 6 0 10 -7 10 -15z"/>
<path d="M837 1084 c-7 -8 2 -55 13 -67 4 -4 13 -1 20 8 11 13 10 14 -4 9 -9
-3 -16 -1 -16 4 0 6 7 12 16 14 14 3 14 5 -3 21 -11 9 -23 14 -26 11z"/>
<path d="M1045 680 c-3 -5 -1 -10 4 -10 6 0 11 5 11 10 0 6 -2 10 -4 10 -3 0
-8 -4 -11 -10z"/>
<path d="M1045 648 c29 -16 29 -15 31 -59 1 -22 5 -43 9 -47 8 -8 25 18 24 38
0 10 -3 8 -10 -5 -8 -18 -9 -18 -8 5 1 14 1 30 0 37 -2 18 -30 43 -49 43 -14
-1 -14 -3 3 -12z"/>
<path d="M927 477 c-4 -10 -2 -27 3 -37 16 -29 12 -48 -5 -26 -15 19 -15 19
-15 -1 0 -12 -3 -28 -6 -37 -4 -11 0 -16 14 -16 16 0 22 8 26 33 8 42 -7 110
-17 84z"/>
<path d="M1162 449 c4 -10 -5 -23 -23 -35 -43 -28 -39 -54 9 -54 53 0 67 12
41 33 -13 11 -18 25 -14 37 3 10 0 22 -6 26 -8 5 -10 2 -7 -7z m8 -48 c0 -4
-6 -8 -14 -8 -8 0 -12 6 -9 14 5 13 23 9 23 -6z"/>
<path d="M47 1789 c6 -6 9 -19 6 -28 -4 -12 -3 -13 6 -5 13 12 5 44 -12 44 -8
0 -8 -3 0 -11z"/>
</g>
</svg>
