<?xml version="1.0" encoding="utf-8"?>
<!-- Generator: Adobe Illustrator 27.6.1, SVG Export Plug-In . SVG Version: 6.00 Build 0)  -->
<svg version="1.1" id="Layer_1" xmlns="http://www.w3.org/2000/svg" xmlns:xlink="http://www.w3.org/1999/xlink" x="0px" y="0px"
	 viewBox="0 0 512 512" style="enable-background:new 0 0 512 512;" xml:space="preserve">
<style type="text/css">
	.st0{fill:none;}
	.st1{clip-path:url(#SVGID_00000072992319544806328740000006056073643528588186_);}
	.st2{fill:#FFA000;}
	.st3{opacity:0.12;fill:url(#SVGID_00000107570079164236031460000000993685393407136673_);enable-background:new    ;}
	.st4{fill:#F57C00;}
	.st5{opacity:0.2;fill:url(#SVGID_00000125568903167476746360000014566802795573047970_);enable-background:new    ;}
	.st6{fill:#FFCA28;}
	.st7{fill:#FFFFFF;fill-opacity:0.2;}
	.st8{opacity:0.2;fill:#A52714;enable-background:new    ;}
	.st9{fill:url(#SVGID_00000017503033607129061120000011431628190678703273_);}
	.st10{fill:#5F6368;}
</style>
<g>
	<rect x="0" y="195.3" class="st0" width="121.3" height="121.3"/>
	<g>
		<defs>
			<path id="SVGID_1_" d="M92,223.6c-0.2-1.4-1.6-2.4-3-2.2c-0.5,0.1-1,0.3-1.4,0.7L74,235.7l-10.7-20.4c-0.7-1.3-2.3-1.8-3.5-1.1
				c0,0,0,0,0,0c-0.5,0.3-0.8,0.7-1.1,1.1l-5.8,11.2l-14.7-27.4c-0.7-1.3-2.3-1.7-3.5-1c0,0,0,0,0,0c-0.7,0.4-1.2,1.1-1.4,1.9
				L19,290.8l38,21.4c2.4,1.3,5.3,1.3,7.6,0l38.3-21.3L92,223.6z"/>
		</defs>
		<clipPath id="SVGID_00000073697616643456513300000008868674474471730097_">
			<use xlink:href="#SVGID_1_"  style="overflow:visible;"/>
		</clipPath>
		<g style="clip-path:url(#SVGID_00000073697616643456513300000008868674474471730097_);">
			<path class="st2" d="M19,290.8l14.2-90.8c0.2-1.4,1.5-2.4,2.9-2.1c0.8,0.1,1.5,0.6,1.9,1.4l14.7,27.4l5.8-11.2
				c0.7-1.3,2.3-1.8,3.5-1.1c0,0,0,0,0,0c0.5,0.3,0.8,0.7,1.1,1.1l39.6,75.4H19z"/>
			
				<linearGradient id="SVGID_00000112623807825218148340000006513352999720661395_" gradientUnits="userSpaceOnUse" x1="35.3149" y1="520.2834" x2="30.0871" y2="523.0176" gradientTransform="matrix(1 0 0 -1 0 779.99)">
				<stop  offset="0" style="stop-color:#A52714"/>
				<stop  offset="0.4" style="stop-color:#A52714;stop-opacity:0.5"/>
				<stop  offset="0.8" style="stop-color:#A52714;stop-opacity:0"/>
			</linearGradient>
			
				<path style="opacity:0.12;fill:url(#SVGID_00000112623807825218148340000006513352999720661395_);enable-background:new    ;" d="
				M67.5,198.4L-2,192.5v125.8l21-27.5L67.5,198.4z"/>
			<path class="st4" d="M68.1,255.4l-15.3-28.9L19,290.8L68.1,255.4z"/>
			
				<linearGradient id="SVGID_00000122708955195847085780000016432248819888107437_" gradientUnits="userSpaceOnUse" x1="57.5821" y1="527.9272" x2="55.2417" y2="530.2677" gradientTransform="matrix(1 0 0 -1 0 779.99)">
				<stop  offset="0" style="stop-color:#A52714;stop-opacity:0.8"/>
				<stop  offset="0.5" style="stop-color:#A52714;stop-opacity:0.21"/>
				<stop  offset="1" style="stop-color:#A52714;stop-opacity:0"/>
			</linearGradient>
			<path style="opacity:0.2;fill:url(#SVGID_00000122708955195847085780000016432248819888107437_);enable-background:new    ;" d="
				M-2,192.5h125.8v125.8H-2V192.5z"/>
			<path class="st6" d="M102.9,290.8l-10.9-67.3c-0.2-1.4-1.6-2.4-3-2.2c-0.5,0.1-1,0.3-1.4,0.7L19,290.8l38,21.4
				c2.4,1.3,5.3,1.3,7.6,0L102.9,290.8z"/>
			<path class="st7" d="M92,223.6c-0.2-1.4-1.6-2.4-3-2.2c-0.5,0.1-1,0.3-1.4,0.7L74,235.7l-10.7-20.4c-0.7-1.3-2.3-1.8-3.5-1.1
				c0,0,0,0,0,0c-0.5,0.3-0.8,0.7-1.1,1.1l-5.8,11.2l-14.7-27.4c-0.7-1.3-2.3-1.7-3.5-1c0,0,0,0,0,0c-0.7,0.4-1.2,1.1-1.4,1.9
				L19,290.8l0,0l0,0l0.4,0.2l54.7-54.7l13.6-13.6c1-1,2.6-1.1,3.6-0.1c0,0,0,0,0.1,0.1c0.4,0.4,0.7,0.9,0.7,1.4l10.8,66.6h0.1
				L92,223.6z M19.1,290.6l14.1-90c0.2-1.4,1.5-2.4,2.9-2.2c0,0,0,0,0.1,0c0.8,0.1,1.5,0.6,1.9,1.4l14.7,27.4l5.8-11.2
				c0.7-1.3,2.2-1.8,3.5-1.1c0,0,0,0,0,0c0.5,0.3,0.8,0.7,1.1,1.1L73.7,236L19.1,290.6z"/>
			<path class="st8" d="M64.6,311.4c-2.4,1.3-5.3,1.3-7.7,0l-37.9-21.1v0.6l37.9,21.3c2.4,1.3,5.3,1.3,7.6,0l38.3-21.3v-0.6
				L64.6,311.4z"/>
			
				<linearGradient id="SVGID_00000145039907202569637860000011639309328822444219_" gradientUnits="userSpaceOnUse" x1="-828.4767" y1="1941.5446" x2="-795.6882" y2="1974.3549" gradientTransform="matrix(2.67 0 0 2.67 2228.79 -4965.8999)">
				<stop  offset="0" style="stop-color:#FFFFFF;stop-opacity:0.1"/>
				<stop  offset="1" style="stop-color:#FFFFFF;stop-opacity:0"/>
			</linearGradient>
			<path style="fill:url(#SVGID_00000145039907202569637860000011639309328822444219_);" d="M92,223.6c-0.2-1.4-1.6-2.4-3-2.2
				c-0.5,0.1-1,0.3-1.4,0.7L74,235.7l-10.7-20.4c-0.7-1.3-2.3-1.8-3.5-1.1c0,0,0,0,0,0c-0.5,0.3-0.8,0.7-1.1,1.1l-5.8,11.2
				l-14.7-27.4c-0.7-1.3-2.3-1.7-3.5-1c0,0,0,0,0,0c-0.7,0.4-1.2,1.1-1.4,1.9L19,290.8l38,21.4c2.4,1.3,5.3,1.3,7.6,0l38.3-21.3
				L92,223.6z"/>
		</g>
	</g>
	<path class="st10" d="M183.6,290.3h-9.1v-70.2h41.1v8.7h-32v23h28.9v8.4h-28.9L183.6,290.3L183.6,290.3z M231.2,230.1
		c-2.5,2.6-6.7,2.7-9.3,0.2c-2.6-2.5-2.7-6.7-0.2-9.3c2.5-2.6,6.7-2.7,9.3-0.2c1.3,1.3,2.1,3,2,4.8C233,227.4,232.4,229,231.2,230.1
		L231.2,230.1z M231.2,290.3h-9.1v-48.1h9.1L231.2,290.3z M250.1,290.3H241v-48.1h8.7v7.8h0.4c1-2.8,3.1-5.1,5.7-6.4
		c2.5-1.6,5.3-2.5,8.3-2.5c2.3-0.1,4.6,0.3,6.8,1.1l-3.5,8.4c-1.6-0.5-3.2-0.7-4.8-0.7c-3.3,0-6.5,1.4-8.7,3.9
		c-2.6,2.7-3.9,6.4-3.8,10.2L250.1,290.3z M292.6,291.9c-6.7,0.2-13.2-2.4-17.7-7.3c-4.6-5-7-11.5-6.8-18.3
		c-0.1-6.6,2.2-13.1,6.6-18.1c4.2-5,10.4-7.8,17-7.6c6.4-0.3,12.7,2.3,17.1,7c4.5,5.1,6.9,11.8,6.6,18.7v1.7h-38.1
		c0,4.3,1.8,8.4,4.8,11.5c2.8,2.8,6.5,4.3,10.4,4.2c6.6,0,10.9-2.8,13.1-8.3l8,3.4c-1.6,3.8-4.3,7-7.7,9.3
		C301.9,290.8,297.3,292.1,292.6,291.9L292.6,291.9z M305.6,260.4c-0.3-3-1.6-5.7-3.8-7.8c-2.8-2.7-6.5-4-10.4-3.8
		c-3.2-0.1-6.3,1-8.7,3.1c-2.5,2.2-4.3,5.1-5.1,8.4H305.6z M346.9,291.9c-3.5,0.1-6.9-0.7-9.9-2.4c-2.7-1.3-5-3.4-6.6-5.9h-0.4v6.6
		h-8.7v-70.1h9.1v22.1l-0.4,6.7h0.4c1.6-2.5,3.9-4.6,6.6-5.9c3.1-1.6,6.5-2.4,9.9-2.4c6.2,0,12.1,2.7,16.1,7.4
		c4.6,5,7,11.5,6.8,18.3c0.2,6.7-2.2,13.3-6.8,18.3C359,289.2,353.1,292,346.9,291.9L346.9,291.9z M345.4,283.7
		c4.1,0,8.1-1.7,10.8-4.8c3.1-3.4,4.7-8,4.5-12.6c0.2-4.6-1.4-9.1-4.5-12.6c-2.8-3.1-6.7-4.8-10.8-4.8c-4.1-0.1-8.1,1.6-10.8,4.7
		c-3,3.5-4.6,8-4.4,12.7c-0.3,4.6,1.3,9.2,4.4,12.7C337.3,282.1,341.3,283.8,345.4,283.7z M392.3,292c-4.7,0.2-9.2-1.4-12.8-4.4
		c-3.4-2.9-5.3-7.2-5.1-11.7c-0.2-4.9,2.1-9.5,6.1-12.4c4.4-3.1,9.7-4.6,15-4.4c4.6-0.2,9.1,0.8,13.1,2.9v-1.4
		c0.1-3.2-1.2-6.3-3.6-8.5c-2.4-2.2-5.6-3.3-8.9-3.2c-2.5,0-5,0.6-7.1,1.8c-2,1.1-3.6,2.9-4.4,5.1l-8.3-3.5c1.4-3.2,3.7-6,6.6-8
		c3.8-2.6,8.4-3.9,13-3.7c5.6-0.2,11.1,1.7,15.3,5.4c4.2,3.9,6.5,9.6,6.1,15.3v28.8h-8.7v-6.6H408
		C404.6,289.1,398.6,292.3,392.3,292L392.3,292z M393.7,283.7c3.8,0,7.4-1.5,10.1-4.1c2.9-2.5,4.6-6.1,4.6-9.9
		c-3.3-2.3-7.3-3.4-11.4-3.2c-3.5-0.3-7.1,0.7-9.9,2.8c-2,1.6-3.3,4-3.4,6.6c-0.1,2.3,1.1,4.4,3.1,5.6
		C388.9,282.9,391.3,283.7,393.7,283.7z M442.2,292c-4.7,0.2-9.4-1.2-13.3-3.9c-3.4-2.5-6.1-5.9-7.7-9.8l8-3.3
		c1.9,5.6,7.2,9.3,13.1,9c2.4,0.1,4.9-0.5,6.9-1.8c1.7-1.1,2.7-3,2.6-5c0-3.1-2.2-5.3-6.6-6.4l-9.8-2.4c-3.2-0.8-6.2-2.3-8.7-4.4
		c-2.7-2.1-4.3-5.4-4.1-8.9c0-4.2,2.1-8.1,5.7-10.3c7.4-4.9,17-5.3,24.8-1.1c3.3,1.8,5.8,4.8,7.1,8.3l-7.8,3.2
		c-1.8-4.2-5.4-6.4-10.9-6.4c-2.4-0.1-4.7,0.5-6.7,1.7c-1.7,0.9-2.8,2.6-2.8,4.5c0,2.8,2.2,4.6,6.4,5.6l9.5,2.2
		c3.8,0.7,7.3,2.6,10.1,5.4c2.1,2.4,3.3,5.5,3.2,8.7c0,4.2-1.9,8.2-5.3,10.8C452,290.7,447.1,292.3,442.2,292L442.2,292z M489.4,292
		c-6.7,0.2-13.2-2.4-17.7-7.3c-4.6-5-7-11.6-6.8-18.4c-0.1-6.6,2.2-13.1,6.6-18.1c4.2-5,10.4-7.8,17-7.6c6.4-0.3,12.7,2.3,17.1,7
		c4.5,5.1,6.8,11.8,6.5,18.6v1.7h-38.1c0,4.3,1.8,8.4,4.8,11.5c2.8,2.8,6.5,4.3,10.4,4.3c6.5,0,10.9-2.8,13.1-8.3l8.1,3.4
		c-1.6,3.8-4.3,7-7.7,9.3C498.8,290.8,494.1,292.1,489.4,292L489.4,292z M502.4,260.5c-0.3-3-1.6-5.7-3.7-7.8
		c-2.8-2.7-6.5-4-10.4-3.8c-3.2-0.1-6.3,1.1-8.7,3.1c-2.5,2.2-4.3,5.2-5.1,8.4H502.4z"/>
</g>
</svg>
