<?xml version="1.0" encoding="utf-8"?>
<!-- Generator: Adobe Illustrator 26.5.0, SVG Export Plug-In . SVG Version: 6.00 Build 0)  -->
<svg version="1.1" id="Layer_1" xmlns="http://www.w3.org/2000/svg" xmlns:xlink="http://www.w3.org/1999/xlink" x="0px" y="0px"
	 viewBox="0 0 512 512" style="enable-background:new 0 0 512 512;" xml:space="preserve">
<style type="text/css">
	.st0{fill:#ED1C24;}
</style>
<g id="XMLID_1_">
	<polygon id="XMLID_13_" class="st0" points="0,264.15 0,217.1 25.6,217.1 25.6,242.42 48.16,217.1 78.18,217.1 49.68,246.57 
		61.02,264.15 81.23,295.42 50.51,295.42 31.55,264.15 25.6,270.51 25.6,295.42 0,295.42 	"/>
	<polygon id="XMLID_12_" class="st0" points="146.13,264.15 137.55,238.41 159.55,238.41 165.92,264.15 168.27,273.69 
		170.76,264.15 177.26,238.41 196.5,238.41 202.86,264.15 205.22,273.69 207.57,264.15 214.21,238.41 235.66,238.41 227.36,264.15 
		217.39,295.28 195.39,295.28 187.23,264.15 186.53,261.93 185.98,264.15 178.51,295.28 156.23,295.28 	"/>
	<path id="XMLID_11_" class="st0" d="M298.34,264.15c-1.66-2.21-2.49-4.98-2.49-8.58c0-14.67,15.08-18.82,26.98-18.82
		c12.45,0,26.85,2.77,28.23,17.85h-20.48c-0.28-1.94-0.97-3.04-2.21-4.15c-1.25-0.97-2.77-1.52-4.57-1.52
		c-3.87,0-6.37,1.38-6.37,4.15c0,5.67,17.85,4.57,28.37,10.93c4.43,2.63,7.47,6.64,7.47,13.01c0,11.76-9.69,19.79-30.58,19.79
		c-13.01,0-27.54-4.01-28.64-19.37h21.59c0,2.35,0.83,4.15,2.35,5.26c1.52,0.97,3.46,1.66,5.67,1.66c3.46,0,7.06-0.97,7.06-4.98
		C330.72,271.89,306.23,275.77,298.34,264.15L298.34,264.15z"/>
	<polygon id="XMLID_10_" class="st0" points="421.78,264.15 421.78,217.1 444.33,217.1 444.33,255.7 458.86,238.55 485.29,238.55 
		464.12,260.55 466.61,264.15 488.06,295.42 460.94,295.42 448.62,275.08 444.33,279.37 444.33,295.42 421.78,295.42 	"/>
	<polygon id="XMLID_9_" class="st0" points="489.44,238.55 489.44,264.15 489.44,295.42 512,295.42 512,264.15 512,238.55 	"/>
	<polygon id="XMLID_8_" class="st0" points="489.44,215.02 489.44,231.07 512,231.07 512,215.02 	"/>
	<path id="XMLID_2_" class="st0" d="M417.35,287.12v-22.83v-3.87c0-13.56-1.66-23.52-28.51-23.52c-22.56,0-31.14,6.92-31.14,19.1
		h21.73c0.55-4.84,4.84-5.4,8.03-5.4c2.35,0,7.33,0.42,7.33,4.57c0,7.06-17.71,4.29-29.75,9.13c-6.23,2.49-10.93,6.92-10.93,15.64
		c0,11.76,9.55,17.16,20.34,17.16c8.58,0,15.08-1.66,21.45-7.61l0.97,6.09h23.52v-0.97C417.49,291.96,417.35,290.3,417.35,287.12z
		 M384.69,284.07c-4.43,0-7.06-1.94-7.06-4.7c0-7.33,9.69-5.67,17.16-9.13C395.35,277.98,392.58,284.07,384.69,284.07z"/>
	<path id="XMLID_3_" class="st0" d="M291.98,287.12v-22.83v-3.87c0-13.56-1.66-23.52-28.51-23.52c-22.42,0-31.14,6.92-31.14,19.1
		h21.86c0.42-4.84,4.7-5.4,7.89-5.4c2.49,0,7.33,0.42,7.33,4.57c0,7.06-17.71,4.29-29.75,9.13c-6.23,2.49-10.79,6.92-10.79,15.64
		c0,11.76,9.55,17.16,20.2,17.16c8.58,0,15.08-1.66,21.45-7.61l1.25,6.09h23.39v-0.97C292.12,291.96,291.98,290.3,291.98,287.12z
		 M259.6,284.07c-4.57,0-7.2-1.94-7.2-4.7c0-7.33,9.69-5.67,17.16-9.13C269.98,277.98,267.35,284.07,259.6,284.07z"/>
	<path id="XMLID_14_" class="st0" d="M140.04,287.12v-22.83v-3.87c0-13.56-1.66-23.52-28.64-23.52c-22.42,0-31,6.92-31,19.1h21.73
		c0.55-4.84,4.7-5.4,8.03-5.4c2.35,0,7.33,0.42,7.33,4.57c0,7.06-17.71,4.29-29.89,9.13c-6.09,2.49-10.79,6.92-10.79,15.64
		c0,11.76,9.55,17.16,20.34,17.16c8.44,0,15.08-1.66,21.45-7.61l0.97,6.09h23.52v-0.97C140.18,291.96,140.04,290.3,140.04,287.12z
		 M107.38,284.07c-4.43,0-7.06-1.94-7.06-4.7c0-7.33,9.69-5.67,17.16-9.13C118.04,277.98,115.41,284.07,107.38,284.07z"/>
</g>
</svg>
